<svg width="242" height="132" viewBox="0 0 242 132" fill="none" xmlns="http://www.w3.org/2000/svg">
<g filter="url(#filter0_bdd_2_59)">
<path fill-rule="evenodd" clip-rule="evenodd" d="M216.356 16.7301H29.977C22.7788 16.7301 16.9435 22.5654 16.9435 29.7636V106.661C16.9435 113.859 22.7788 119.695 29.977 119.695H216.356C223.554 119.695 229.389 113.859 229.389 106.661V29.7636C229.389 22.5654 223.554 16.7301 216.356 16.7301ZM29.977 15.4268C22.059 15.4268 15.6401 21.8456 15.6401 29.7636V106.661C15.6401 114.579 22.0589 120.998 29.977 120.998H216.356C224.274 120.998 230.692 114.579 230.692 106.661V29.7636C230.692 21.8456 224.274 15.4268 216.356 15.4268H29.977Z" fill="url(#paint0_linear_2_59)" shape-rendering="crispEdges"/>
</g>
<defs>
<filter id="filter0_bdd_2_59" x="-4.35986" y="-4.57324" width="255.052" height="145.571" filterUnits="userSpaceOnUse" color-interpolation-filters="sRGB">
<feFlood flood-opacity="0" result="BackgroundImageFix"/>
<feGaussianBlur in="BackgroundImage" stdDeviation="10"/>
<feComposite in2="SourceAlpha" operator="in" result="effect1_backgroundBlur_2_59"/>
<feColorMatrix in="SourceAlpha" type="matrix" values="0 0 0 0 0 0 0 0 0 0 0 0 0 0 0 0 0 0 127 0" result="hardAlpha"/>
<feOffset dx="4" dy="4"/>
<feGaussianBlur stdDeviation="3.5"/>
<feComposite in2="hardAlpha" operator="out"/>
<feColorMatrix type="matrix" values="0 0 0 0 0.241667 0 0 0 0 0.241667 0 0 0 0 0.241667 0 0 0 0.17 0"/>
<feBlend mode="normal" in2="effect1_backgroundBlur_2_59" result="effect2_dropShadow_2_59"/>
<feColorMatrix in="SourceAlpha" type="matrix" values="0 0 0 0 0 0 0 0 0 0 0 0 0 0 0 0 0 0 127 0" result="hardAlpha"/>
<feOffset dx="-4" dy="-4"/>
<feGaussianBlur stdDeviation="5.5"/>
<feComposite in2="hardAlpha" operator="out"/>
<feColorMatrix type="matrix" values="0 0 0 0 0.370833 0 0 0 0 0.370833 0 0 0 0 0.370833 0 0 0 0.25 0"/>
<feBlend mode="normal" in2="effect2_dropShadow_2_59" result="effect3_dropShadow_2_59"/>
<feBlend mode="normal" in="SourceGraphic" in2="effect3_dropShadow_2_59" result="shape"/>
</filter>
<linearGradient id="paint0_linear_2_59" x1="-33.4479" y1="22.2466" x2="12.0434" y2="190.858" gradientUnits="userSpaceOnUse">
<stop offset="0.242708" stop-color="white" stop-opacity="0.08"/>
<stop offset="1" stop-color="white"/>
</linearGradient>
</defs>
</svg>
