<svg width="22" height="15" viewBox="0 0 22 15" fill="none" xmlns="http://www.w3.org/2000/svg">
<path fill-rule="evenodd" clip-rule="evenodd" d="M8 1.55105H13.9301V12.8063H8V1.55105Z" fill="#FF8136"/>
<path fill-rule="evenodd" clip-rule="evenodd" d="M8.37667 7.17865C8.37667 9.46208 9.38894 11.4958 10.9652 12.8063C9.81233 13.7649 8.35785 14.3367 6.77685 14.3367C3.03409 14.3367 0.00012207 11.1319 0.00012207 7.17865C0.00012207 3.2254 3.03409 0.0205669 6.77685 0.0205669C8.35785 0.0205669 9.81233 0.592419 10.9652 1.551C9.38894 2.86173 8.37667 4.89522 8.37667 7.17865Z" fill="#EB001B"/>
<path fill-rule="evenodd" clip-rule="evenodd" d="M21.7186 2.74311V3.02089H21.6499L21.571 2.82981L21.4919 3.02089H21.4232V2.74311H21.4716V2.95269L21.5458 2.77194H21.596L21.6702 2.95308V2.74311H21.7186ZM21.2835 2.74311V2.97356H21.3716V3.02049H21.1476V2.97356H21.2355V2.74311H21.2835ZM21.9302 7.17874C21.9302 3.22549 18.896 0.0206556 15.1535 0.0206556C13.5725 0.0206556 12.1178 0.592506 10.9651 1.55109C12.5414 2.86162 13.5536 4.89531 13.5536 7.17874C13.5536 9.46197 12.5414 11.4957 10.9651 12.8064C12.1178 13.765 13.5725 14.3368 15.1535 14.3368C18.896 14.3368 21.9302 11.132 21.9302 7.17874Z" fill="#EDE51F"/>
</svg>
