<svg width="90" height="10" viewBox="0 0 90 10" fill="none" xmlns="http://www.w3.org/2000/svg">
<path d="M5.39671 9.47077L3.62546 6.71419L2.01843 9.47077H0.165073L2.7457 5.34176L0.129883 1.28314H2.01843L3.78968 4.02799L5.38498 1.28314H7.23834L4.66944 5.40041L7.28526 9.47077H5.39671Z" fill="#5F5F5F"/>
<path d="M15.5497 9.47077L13.7784 6.71419L12.1714 9.47077H10.318L12.8987 5.34176L10.2829 1.28314H12.1714L13.9427 4.02799L15.538 1.28314H17.3913L14.8224 5.40041L17.4382 9.47077H15.5497Z" fill="#5F5F5F"/>
<path d="M25.7027 9.47077L23.9314 6.71419L22.3244 9.47077H20.471L23.0517 5.34176L20.4358 1.28314H22.3244L24.0956 4.02799L25.6909 1.28314H27.5443L24.9754 5.40041L27.5912 9.47077H25.7027Z" fill="#5F5F5F"/>
<path d="M35.8556 9.47077L34.0844 6.71419L32.4774 9.47077H30.624L33.2046 5.34176L30.5888 1.28314H32.4774L34.2486 4.02799L35.8439 1.28314H37.6973L35.1284 5.40041L37.7442 9.47077H35.8556Z" fill="#5F5F5F"/>
<path d="M55.5668 7.80509V6.51478L59.4026 1.02508H61.3146V6.37401H62.3468V7.80509H61.3146V9.47077H59.6724V7.80509H55.5668ZM59.7779 2.7846L57.3733 6.37401H59.7779V2.7846Z" fill="#5F5F5F"/>
<path d="M65.5038 5.0837C65.5038 3.73083 65.7462 2.6712 66.2311 1.90484C66.7237 1.13847 67.537 0.755283 68.6709 0.755283C69.8049 0.755283 70.6142 1.13847 71.0991 1.90484C71.5917 2.6712 71.8381 3.73083 71.8381 5.0837C71.8381 6.4444 71.5917 7.51184 71.0991 8.28603C70.6142 9.06021 69.8049 9.44731 68.6709 9.44731C67.537 9.44731 66.7237 9.06021 66.2311 8.28603C65.7462 7.51184 65.5038 6.4444 65.5038 5.0837ZM70.2193 5.0837C70.2193 4.50501 70.1802 4.02017 70.102 3.62916C70.0316 3.23034 69.883 2.90581 69.6563 2.65556C69.4373 2.40532 69.1089 2.2802 68.6709 2.2802C68.233 2.2802 67.9007 2.40532 67.6739 2.65556C67.4549 2.90581 67.3063 3.23034 67.2281 3.62916C67.1578 4.02017 67.1226 4.50501 67.1226 5.0837C67.1226 5.67803 67.1578 6.17851 67.2281 6.58516C67.2985 6.98398 67.4471 7.30852 67.6739 7.55876C67.9007 7.80118 68.233 7.92239 68.6709 7.92239C69.1089 7.92239 69.4412 7.80118 69.668 7.55876C69.8948 7.30852 70.0434 6.98398 70.1137 6.58516C70.1841 6.17851 70.2193 5.67803 70.2193 5.0837Z" fill="#5F5F5F"/>
<path d="M75.7147 7.61741C76.4654 6.9918 77.0637 6.47177 77.5094 6.0573C77.9552 5.63502 78.3266 5.19709 78.6238 4.74353C78.9209 4.28996 79.0695 3.84422 79.0695 3.40629C79.0695 3.00747 78.9757 2.69466 78.788 2.46788C78.6003 2.2411 78.311 2.12771 77.92 2.12771C77.529 2.12771 77.2279 2.26065 77.0167 2.52653C76.8056 2.7846 76.6961 3.14041 76.6883 3.59397H75.093C75.1243 2.65556 75.4019 1.94394 75.9258 1.45909C76.4576 0.974245 77.1301 0.731823 77.9434 0.731823C78.8349 0.731823 79.5192 0.970336 79.9962 1.44736C80.4732 1.91657 80.7117 2.53826 80.7117 3.31245C80.7117 3.92242 80.5475 4.50501 80.2191 5.06024C79.8906 5.61547 79.5153 6.10031 79.093 6.51478C78.6707 6.92142 78.1194 7.41409 77.439 7.99277H80.8994V9.35347H75.1047V8.13353L75.7147 7.61741Z" fill="#5F5F5F"/>
<path d="M84.0691 3.17169C84.1082 2.38968 84.3819 1.78753 84.8902 1.36525C85.4063 0.935145 86.0828 0.720093 86.9195 0.720093C87.4904 0.720093 87.9791 0.821754 88.3858 1.02508C88.7924 1.22058 89.0974 1.49037 89.3008 1.83446C89.5119 2.17072 89.6175 2.5539 89.6175 2.98401C89.6175 3.47667 89.4884 3.89505 89.2304 4.23913C88.9801 4.5754 88.679 4.80218 88.3271 4.91948V4.9664C88.7807 5.10716 89.1326 5.3574 89.3829 5.71713C89.6409 6.07685 89.77 6.53824 89.77 7.10128C89.77 7.57049 89.6605 7.98886 89.4415 8.35641C89.2304 8.72395 88.9137 9.01329 88.4914 9.22444C88.0769 9.42776 87.5764 9.52942 86.9899 9.52942C86.1062 9.52942 85.3868 9.30655 84.8316 8.8608C84.2763 8.41506 83.9831 7.75817 83.9518 6.89014H85.5471C85.5627 7.27332 85.6918 7.58222 85.9342 7.81682C86.1844 8.0436 86.5246 8.15699 86.9547 8.15699C87.3535 8.15699 87.6585 8.04751 87.8697 7.82855C88.0886 7.60177 88.1981 7.31242 88.1981 6.96052C88.1981 6.49132 88.0495 6.15505 87.7524 5.95173C87.4552 5.74841 86.9938 5.64675 86.3682 5.64675H86.028V4.29778H86.3682C87.4787 4.29778 88.0339 3.92633 88.0339 3.18342C88.0339 2.84716 87.9322 2.58518 87.7289 2.3975C87.5334 2.20982 87.248 2.11598 86.8726 2.11598C86.5051 2.11598 86.2196 2.21764 86.0163 2.42096C85.8208 2.61646 85.7074 2.86671 85.6761 3.17169H84.0691Z" fill="#5F5F5F"/>
</svg>
