<svg width="79" height="80" viewBox="0 0 79 80" fill="none" xmlns="http://www.w3.org/2000/svg">
<path fill-rule="evenodd" clip-rule="evenodd" d="M70.8276 1.37931H8.17241C4.41116 1.37931 1.36207 4.467 1.36207 8.27586V71.7241C1.36207 75.533 4.41116 78.6207 8.17241 78.6207H70.8276C74.5888 78.6207 77.6379 75.533 77.6379 71.7241V8.27586C77.6379 4.467 74.5888 1.37931 70.8276 1.37931ZM8.17241 0C3.65891 0 0 3.70523 0 8.27586V71.7241C0 76.2948 3.65891 80 8.17241 80H70.8276C75.3411 80 79 76.2948 79 71.7241V8.27586C79 3.70523 75.3411 0 70.8276 0H8.17241Z" fill="#FC4D6D"/>
</svg>
