<svg width="65" height="12" viewBox="0 0 65 12" fill="none" xmlns="http://www.w3.org/2000/svg">
<path opacity="0.35" fill-rule="evenodd" clip-rule="evenodd" d="M44.2943 0.833313C43.329 0.833313 42.9472 0.910306 42.5532 1.1304C42.2205 1.31621 41.9623 1.58588 41.7844 1.93332C41.5737 2.34485 41.5 2.74355 41.5 3.75183V8.24813C41.5 9.25641 41.5737 9.65511 41.7844 10.0666C41.9623 10.4141 42.2205 10.6838 42.5532 10.8696C42.9472 11.0897 43.329 11.1666 44.2943 11.1666H58.8121C59.7774 11.1666 60.1592 11.0897 60.5532 10.8696C60.8858 10.6838 61.144 10.4141 61.3219 10.0666C61.5327 9.65511 61.6064 9.25641 61.6064 8.24813V3.75183C61.6064 2.74355 61.5327 2.34485 61.3219 1.93332C61.144 1.58588 60.8858 1.31621 60.5532 1.1304C60.1592 0.910306 59.7774 0.833313 58.8121 0.833313H44.2943Z" stroke="#1A1A1A"/>
<path opacity="0.4" d="M63.0425 4V8C63.813 7.66122 64.314 6.87313 64.314 6C64.314 5.12687 63.813 4.33878 63.0425 4Z" fill="#1A1A1A"/>
<path d="M44.5726 2.33331H58.5336C59.1026 2.33331 59.309 2.3952 59.517 2.5114C59.725 2.62761 59.8883 2.79813 59.9996 3.01542C60.1108 3.2327 60.1701 3.44822 60.1701 4.04257V7.95739C60.1701 8.55174 60.1108 8.76726 59.9996 8.98454C59.8883 9.20183 59.725 9.37235 59.517 9.48856C59.309 9.60476 59.1026 9.66665 58.5336 9.66665H44.5726C44.0035 9.66665 43.7971 9.60476 43.5891 9.48856C43.3811 9.37235 43.2178 9.20183 43.1065 8.98454C42.9953 8.76726 42.936 8.55174 42.936 7.95739V4.04257C42.936 3.44822 42.9953 3.2327 43.1065 3.01542C43.2178 2.79813 43.3811 2.62761 43.5891 2.5114C43.7971 2.3952 44.0035 2.33331 44.5726 2.33331Z" fill="#1A1A1A"/>
<path d="M28.894 2.61517C31.0241 2.61526 33.0727 3.46937 34.6164 5.00096C34.7327 5.11921 34.9185 5.11772 35.033 4.99762L36.1442 3.82729C36.2022 3.76638 36.2345 3.68387 36.234 3.59802C36.2335 3.51217 36.2003 3.43006 36.1416 3.36986C32.0898 -0.682369 25.6976 -0.682369 21.6458 3.36986C21.5871 3.43002 21.5538 3.5121 21.5532 3.59795C21.5527 3.6838 21.585 3.76634 21.6429 3.82729L22.7544 4.99762C22.8688 5.1179 23.0548 5.11939 23.171 5.00096C24.7149 3.46927 26.7638 2.61516 28.894 2.61517ZM28.894 6.42275C30.0644 6.42267 31.1929 6.87663 32.0604 7.6964C32.1778 7.81275 32.3626 7.81022 32.477 7.69072L33.5869 6.52039C33.6454 6.459 33.6778 6.37572 33.677 6.28919C33.6761 6.20265 33.6421 6.12008 33.5824 6.05995C30.9407 3.49554 26.8496 3.49554 24.2079 6.05995C24.1482 6.12008 24.1142 6.20269 24.1134 6.28926C24.1126 6.37582 24.1451 6.45909 24.2037 6.52039L25.3133 7.69072C25.4277 7.81022 25.6125 7.81275 25.7299 7.6964C26.5968 6.87717 27.7245 6.42325 28.894 6.42275ZM31.0271 9.21582C31.0864 9.15503 31.1191 9.07136 31.1174 8.98458C31.1157 8.89781 31.0798 8.81561 31.0181 8.75739C29.7919 7.67512 27.9961 7.67512 26.7699 8.75739C26.7082 8.81556 26.6722 8.89774 26.6705 8.98451C26.6687 9.07129 26.7013 9.15498 26.7607 9.21582L28.6809 11.2378C28.7372 11.2972 28.814 11.3307 28.894 11.3307C28.9741 11.3307 29.0508 11.2972 29.1071 11.2378L31.0271 9.21582Z" fill="#1A1A1A"/>
<path d="M1.44671 7.33335H2.40415C2.93294 7.33335 3.3616 7.78107 3.3616 8.33335V10.3334C3.3616 10.8856 2.93294 11.3334 2.40415 11.3334H1.44671C0.917921 11.3334 0.489258 10.8856 0.489258 10.3334V8.33335C0.489258 7.78107 0.917921 7.33335 1.44671 7.33335ZM5.91478 5.33335H6.87223C7.40102 5.33335 7.82968 5.78107 7.82968 6.33335V10.3334C7.82968 10.8856 7.40102 11.3334 6.87223 11.3334H5.91478C5.386 11.3334 4.95734 10.8856 4.95734 10.3334V6.33335C4.95734 5.78107 5.386 5.33335 5.91478 5.33335ZM10.3829 3.00002H11.3403C11.8691 3.00002 12.2978 3.44773 12.2978 4.00002V10.3334C12.2978 10.8856 11.8691 11.3334 11.3403 11.3334H10.3829C9.85411 11.3334 9.42545 10.8856 9.42545 10.3334V4.00002C9.42545 3.44773 9.85411 3.00002 10.3829 3.00002ZM14.851 0.666687H15.8084C16.3372 0.666687 16.7659 1.1144 16.7659 1.66669V10.3334C16.7659 10.8856 16.3372 11.3334 15.8084 11.3334H14.851C14.3222 11.3334 13.8935 10.8856 13.8935 10.3334V1.66669C13.8935 1.1144 14.3222 0.666687 14.851 0.666687Z" fill="#1A1A1A"/>
</svg>
